<svg width="40" height="45" viewBox="0 0 40 45" fill="none" xmlns="http://www.w3.org/2000/svg">
<g filter="url(#filter0_d_2_8)">
<path d="M32.15 28.8166L30 26.6666V18.3333C30 13.2166 27.2667 8.93329 22.5 7.79996V6.66663C22.5 5.28329 21.3833 4.16663 20 4.16663C18.6167 4.16663 17.5 5.28329 17.5 6.66663V7.79996C12.7167 8.93329 9.99999 13.2 9.99999 18.3333V26.6666L7.84999 28.8166C6.79999 29.8666 7.53333 31.6666 9.01666 31.6666H30.9667C32.4667 31.6666 33.2 29.8666 32.15 28.8166ZM26.6667 28.3333H13.3333V18.3333C13.3333 14.2 15.85 10.8333 20 10.8333C24.15 10.8333 26.6667 14.2 26.6667 18.3333V28.3333ZM20 36.6666C21.8333 36.6666 23.3333 35.1666 23.3333 33.3333H16.6667C16.6667 34.2173 17.0179 35.0652 17.643 35.6903C18.2681 36.3154 19.1159 36.6666 20 36.6666Z" fill="#E7E2E2" fill-opacity="0.81"/>
</g>
<defs>
<filter id="filter0_d_2_8" x="-4" y="0" width="48" height="48" filterUnits="userSpaceOnUse" color-interpolation-filters="sRGB">
<feFlood flood-opacity="0" result="BackgroundImageFix"/>
<feColorMatrix in="SourceAlpha" type="matrix" values="0 0 0 0 0 0 0 0 0 0 0 0 0 0 0 0 0 0 127 0" result="hardAlpha"/>
<feOffset dy="4"/>
<feGaussianBlur stdDeviation="2"/>
<feComposite in2="hardAlpha" operator="out"/>
<feColorMatrix type="matrix" values="0 0 0 0 0 0 0 0 0 0 0 0 0 0 0 0 0 0 0.25 0"/>
<feBlend mode="normal" in2="BackgroundImageFix" result="effect1_dropShadow_2_8"/>
<feBlend mode="normal" in="SourceGraphic" in2="effect1_dropShadow_2_8" result="shape"/>
</filter>
</defs>
</svg>
